<?xml version="1.0" standalone="no"?>
<!DOCTYPE svg PUBLIC "-//W3C//DTD SVG 1.1//EN" "http://www.w3.org/Graphics/SVG/1.1/DTD/svg11.dtd" >
<svg xmlns="http://www.w3.org/2000/svg">
<metadata>
Created by FontForge 20120731 at Tue Apr 25 18:19:50 2017
 By admin
</metadata>
<defs>
<font id="iconfont" horiz-adv-x="1024" >
  <font-face 
    font-family="iconfont"
    font-weight="500"
    font-stretch="normal"
    units-per-em="1024"
    panose-1="2 0 6 3 0 0 0 0 0 0"
    ascent="896"
    descent="-128"
    x-height="792"
    bbox="-57 -128.2 1606.03 896"
    underline-thickness="0"
    underline-position="0"
    unicode-range="U+0078-E6E6"
  />
<missing-glyph 
 />
    <glyph glyph-name=".notdef" 
 />
    <glyph glyph-name=".notdef" 
 />
    <glyph glyph-name=".null" horiz-adv-x="0" 
 />
    <glyph glyph-name="nonmarkingreturn" horiz-adv-x="341" 
 />
    <glyph glyph-name="x" unicode="x" horiz-adv-x="1001" 
d="M281 543q-27 -1 -53 -1h-83q-18 0 -36.5 -6t-32.5 -18.5t-23 -32t-9 -45.5v-76h912v41q0 16 -0.5 30t-0.5 18q0 13 -5 29t-17 29.5t-31.5 22.5t-49.5 9h-133v-97h-438v97zM955 310v-52q0 -23 0.5 -52t0.5 -58t-10.5 -47.5t-26 -30t-33 -16t-31.5 -4.5q-14 -1 -29.5 -0.5
t-29.5 0.5h-32l-45 128h-439l-44 -128h-29h-34q-20 0 -45 1q-25 0 -41 9.5t-25.5 23t-13.5 29.5t-4 30v167h911zM163 247q-12 0 -21 -8.5t-9 -21.5t9 -21.5t21 -8.5q13 0 22 8.5t9 21.5t-9 21.5t-22 8.5zM316 123q-8 -26 -14 -48q-5 -19 -10.5 -37t-7.5 -25t-3 -15t1 -14.5
t9.5 -10.5t21.5 -4h37h67h81h80h64h36q23 0 34 12t2 38q-5 13 -9.5 30.5t-9.5 34.5q-5 19 -11 39h-368zM336 498v228q0 11 2.5 23t10 21.5t20.5 15.5t34 6h188q31 0 51.5 -14.5t20.5 -52.5v-227h-327z" />
    <glyph glyph-name="xiangzuo" unicode="&#xe604;" horiz-adv-x="1000" 
d="M238 343l383 -412h177l-383 412l383 383h-177zM238 343z" />
    <glyph glyph-name="shanchu" unicode="&#xe602;" 
d="M344.5 105q11.5 0 19.5 8t8 20v306q0 12 -8 20t-19.5 8t-19.5 -8t-8 -20v-306q0 -12 8 -20t19.5 -8zM511.5 105q11.5 0 20 8t8.5 20v306q0 12 -8.5 20t-20 8t-19.5 -8t-8 -20v-306q0 -12 8 -20t19.5 -8zM679.5 105q11.5 0 19.5 8t8 20v306q0 12 -8 20t-19.5 8t-20 -8
t-8.5 -20v-306q0 -12 8.5 -20t20 -8zM819 746h-116q-9 37 -39 60.5t-68 23.5h-168q-38 0 -68 -23.5t-39 -60.5h-116q-46 0 -79 -32.5t-33 -78.5v-28h28v-28h56v-530q0 -46 32.5 -79t79.5 -33h446q46 0 79 33t33 79v530h55v28h28v28q0 46 -32.5 78.5t-78.5 32.5zM428 774h168
q31 0 48 -28h-264q16 28 48 28zM791 49q0 -23 -16.5 -39.5t-39.5 -16.5h-446q-24 0 -42 16.5t-18 39.5l4 530h558v-530zM149 635q0 23 16.5 39.5t39.5 16.5h614q23 0 39.5 -16.5t16.5 -39.5h-726z" />
    <glyph glyph-name="unie651" unicode="&#xe65c;" 
d="M-57 853v0v0zM994 268q0 -69 -42 -129q-41 -58 -113 -98q2 -12 4.5 -22t5.5 -18q6 -16 12 -29q9 -12 16 -21q6 -7 16 -17q7 -6 9 -10q5 -5 2 -9v-1q-1 -7 -6 -10.5t-11 -2.5q-4 1 -7 1.5t-8.5 1.5t-6.5 1l-20 3q-25 6 -47.5 13.5t-43.5 17.5q-43 20 -79 48q-11 -1 -35 -4
q-21 -2 -38 -2q-71 0 -133 18t-113 47q0 1 1 1q3 3 6 4l2 1l4 3q13 -2 26 -2.5t26 -0.5q33 0 64.5 3.5t62 9.5t58.5 16q88 28 150 77q63 49 100 117q37 66 37 143q0 6 -0.5 11t-0.5 10l-2 11v11q49 -39 76 -88q14 -24 21 -50.5t7 -54.5v0zM813 418q0 -14 -2.5 -28.5t-6 -28
t-9 -27.5t-13.5 -27q-31 -52 -84 -91q-26 -20 -57.5 -34.5t-67.5 -27.5q-71 -22 -152 -22q-16 0 -37 1q-8 2 -12.5 2.5t-11.5 1t-13 0.5q-74 -56 -169 -77l-20 -5q-5 -1 -10.5 -1.5t-11.5 -1.5t-10.5 3.5t-6.5 8.5v1q-3 7 1 10q6 7 10 9q7 9 16 19q5 4 8.5 9t7.5 12
q6 12 11.5 27.5t10.5 39.5q-25 13 -45 28.5t-37.5 32.5t-30.5 37q-21 30 -31.5 62.5t-10.5 66.5q0 61 31 113t84 90q18 13 37.5 24.5t41 20.5t45.5 17q71 22 153 22q20 0 40 -1t39 -4t37.5 -7t35.5 -10q71 -23 125 -62q53 -38 84 -90q10 -18 16.5 -36t10.5 -37.5t4 -39.5v0z
" />
    <glyph glyph-name="iconfontright" unicode="&#xe632;" 
d="M366 -75q33 0 55 24l282 282q24 22 24 54q0 28 -18 48v0l-290 291v0q-22 22 -53 22q-30 0 -51 -21.5t-21 -51.5q0 -35 28 -57l230 -230l-232 -232q-26 -22 -26 -56q0 -30 21 -51.5t51 -21.5v0z" />
    <glyph glyph-name="email" unicode="&#xe69f;" 
d="M973 -38l25 25h-870q-32 0 -54.5 23t-22.5 55v720l-25 -26h870q32 0 54.5 -22.5t22.5 -54.5v-65q0 -10 7.5 -17.5t18 -7.5t18 7.5t7.5 17.5v65q0 53 -37.5 91t-90.5 38h-870h-26v-26v-720q0 -54 37.5 -91.5t90.5 -37.5h870h26v26v476q0 11 -7.5 18.5t-18 7.5t-18 -7.5
t-7.5 -18.5v-476zM513 329q13 -10 27 -2l463 255q9 5 12 15.5t-2 20t-15.5 12.5t-19.5 -3l-463 -255l27 -1l-348 248q-9 7 -19.5 5t-16.5 -10.5t-4 -19t10 -16.5z" />
    <glyph glyph-name="set" unicode="&#xe6ae;" 
d="M826 248l-7 -12l8 -12l78 -116l4 31l-139 -135l29 3l-128 76l-10 6l-11 -4q-13 -5 -25 -10l-13 -4l-3 -14l-28 -131l24 19h-197l24 -18l-34 137l-3 13l-12 4q-11 4 -22 10l-12 5l-11 -7l-120 -77l30 -3l-139 136l4 -31l78 125l7 11l-6 11l-10 26l-4 13l-14 2l-135 28
l20 -24v191l-19 -23l141 33l12 3l5 11q5 13 12 25l6 13l-8 12l-73 110l-3 -30l138 136l-30 -3l123 -75l10 -6l12 5l20 8l12 4l3 13l33 133l-23 -19h196l-24 20l29 -136l3 -13l13 -5q15 -6 30 -13l12 -6l11 7l114 72l-30 3l140 -135l-4 31l-76 -120l-7 -11l5 -12
q6 -12 10 -25l5 -12l13 -4l134 -31l-19 24v-192l20 24l-142 -29l-13 -2l-5 -12q-4 -11 -9 -22zM858 260l5 -24l141 29l20 4v20v192v19l-19 4l-134 32l-6 -24l23 8q-5 15 -11 29l-22 -10l20 -13l77 120l10 17l-14 13l-140 135l-14 13l-16 -10l-114 -71l13 -21l11 22
q-17 8 -34 15l-9 -23l24 5l-29 136l-4 19h-20h-196h-19l-5 -19l-33 -133l24 -5l-8 23q-12 -4 -23 -9l9 -23l13 21l-123 74l-16 10l-14 -13l-138 -137l-14 -14l11 -17l73 -110l21 13l-22 11q-7 -14 -13 -28l23 -9l-6 23l-141 -33l-19 -4v-20v-191v-20l20 -4l134 -27l5 24
l-23 -9q5 -14 12 -28l22 10l-21 12l-78 -124l-10 -17l14 -13l139 -136l14 -13l16 10l120 77l-13 20l-10 -22l24 -10l9 22l-23 -5l34 -138l4 -19h19h197h20l4 20l28 131l-24 5l7 -23q15 5 28 11l-9 22l-12 -21l127 -76l16 -9l14 13l139 135l14 14l-11 17l-78 116l-21 -13
l22 -11q6 12 11 24zM731 396q0 86 -60.5 146.5t-146.5 60.5t-146.5 -60.5t-60.5 -146.5t60.5 -146.5t146.5 -60.5q44 0 84 18q9 4 13 13.5t0 18.5t-13.5 12.5t-19.5 -0.5q-30 -13 -64 -13q-65 0 -111.5 46.5t-46.5 112t46.5 112t112 46.5t112 -46.5t46.5 -112.5
q0 -17 -4 -34q-2 -10 3.5 -18.5t15 -10.5t18 3.5t11.5 15.5q4 22 4 44z" />
    <glyph glyph-name="daishouhuo" unicode="&#xe656;" 
d="M757.5 -88q-46.5 0 -79.5 33t-33 80v13h-194q-4 -2 -8 -2h-62v0q-5 -43 -37 -71.5t-75 -28.5t-75 28.5t-37 71.5h-61q-8 0 -13.5 5t-5.5 13v290q0 5 3 10l99 163q36 56 104 56h141q3 51 40.5 87t88.5 36h277q53 0 91 -38t38 -91v-428q0 -39 -26 -68t-64 -33v-13
q0 -47 -32.5 -80t-79 -33zM757 100q-31 0 -53 -22t-22 -53t22 -53.5t53 -22.5t53 22.5t22 53.5t-22 53t-53 22zM269 124q-31 0 -53 -22.5t-22 -53.5t22 -53t53 -22t53 22t22 53t-22 53.5t-53 22.5zM269 161q40 0 70.5 -25t39.5 -63h2h43v462h-141q-48 0 -72 -38l-97 -158
v-266h45q9 38 39.5 63t70.5 25zM462 75h195q14 28 41 45t59 17t59 -17t42 -45q26 0 45 19t19 45v428q0 38 -27 64.5t-65 26.5h-277q-37 0 -64 -26.5t-27 -64.5v-492v0zM310 321h-119q-8 0 -13.5 5.5t-5.5 13t5.5 13t13.5 5.5h100v101q0 7 5.5 12.5t13.5 5.5t13 -5.5t5 -12.5
v-119q0 -8 -5 -13.5t-13 -5.5z" />
    <glyph glyph-name="iconfontwode" unicode="&#xe615;" 
d="M512 778q57 0 102 -35q22 -17 36 -39q14 -23 19 -49v0q12 -74 3 -141q-11 -75 -47 -120v0q-48 -58 -50 -106q-2 -32 14 -53q19 -25 41.5 -43t50.5 -29t46 -16t50 -12q23 -6 34 -8q41 -11 61 -26v0q34 -24 42 -82q2 -13 2 -26h-808q0 12 2 24q3 28 13 48q11 23 29 36v0
q21 15 62 26q10 3 33 8q32 7 50 12t46 16t50.5 29t41.5 43q16 21 14 53q-2 48 -50 106v0q-36 45 -47 120q-9 67 3 141v0v0q5 26 19 49q14 22 36 39q45 35 102 35zM512 818q-71 0 -128.5 -44t-68.5 -113q-7 -50 -7.5 -100.5t15 -103t44.5 -89.5q18 -21 28 -40t12 -31t1 -20.5
t-3 -12.5l-3 -4q-15 -20 -33 -34.5t-41.5 -24t-38.5 -14.5t-45 -11.5t-41 -8.5q-48 -13 -75 -32q-66 -48 -61 -163l2 -20v0h886q1 5 2 14t0 34t-6 47t-19 47t-36 41q-26 18 -74 31q-11 3 -40.5 9.5t-45 11t-39 14t-42 24.5t-33.5 35q-1 2 -2.5 4.5t-3 12t0.5 20.5t12 30.5
t28 40.5q30 37 45 89.5t14.5 103t-7.5 100.5q-11 69 -68.5 113t-128.5 44v0z" />
    <glyph glyph-name="liulanjilua" unicode="&#xe699;" 
d="M355 737q0 -66 -46.5 -112.5t-112.5 -46.5t-112.5 46.5t-46.5 112.5t46.5 112.5t112.5 46.5t112.5 -46.5t46.5 -112.5zM570 816.5q0 -32.5 -23.5 -56t-56.5 -23.5t-56 23.5t-23 56t23 56t56 23.5t56.5 -23.5t23.5 -56zM800 797q0 -33 -23 -56.5t-56 -23.5t-56.5 23.5
t-23.5 56.5t23.5 56t56.5 23t56 -23t23 -56zM987 693q0 -33 -23.5 -56t-56.5 -23t-56 23t-23 56t23 56.5t56 23.5t56.5 -23.5t23.5 -56.5zM284 489q3 5 7.5 15t23.5 35t44 46t70.5 41t99.5 27h10.5t27.5 -1t41.5 -4.5t49.5 -12t54.5 -21t53 -34t49 -48.5t39 -66.5
t25.5 -86.5q9 -48 10.5 -103.5t-9 -122t-34 -122t-70.5 -99t-113 -57.5q-14 -4 -35.5 -3t-45 4t-46.5 14.5t-40.5 27.5t-26 43.5t-3.5 62.5q2 12 11 43t13.5 54t0 54.5t-24.5 56.5q-8 11 -30 23.5t-45 23.5t-49 29t-41.5 40.5t-23 58.5t6.5 82v0z" />
    <glyph glyph-name="daifahuo" unicode="&#xe614;" 
d="M787 13h-20v119q0 73 -34.5 136t-94.5 99q56 35 92.5 121.5t36.5 165.5v77h20q13 0 22 9t9 22t-9 22t-22 9h-567q-13 0 -22 -9t-9 -22t9 -22t22 -9h24v-77q0 -79 36.5 -165.5t92.5 -121.5q-60 -36 -94.5 -99t-34.5 -136l-1 -119h-23q-13 0 -22 -9t-9 -21.5t9 -21.5t22 -9
h567q13 0 22 9t9 21.5t-9 21.5t-22 9zM706 134v-120h-6h-395v41v-1q63 37 121 57t139 22q80 1 138 44q3 -21 3 -43zM453 338q5 1 10 4v0l1 1v0l2 2v0q1 0 1 1v0q1 0 1 1v0q1 0 1 1v0q0 1 1 1v0q1 1 1 3h1v0.5v0.5l1 1v1v0q4 10 2 20q-3 9 -10 15v1v0v0l-1 1v0q-5 3 -10 5
q-43 11 -78.5 54.5t-53.5 97.5t-18 104v78h401l1 -77q0 -50 -17 -104t-51.5 -98t-77.5 -55q-10 -3 -16.5 -12.5t-5.5 -20.5v0v-1l1 -1v-1v0v-1v-2v0l1 -1v0v-1v-1q1 0 1 -1v0q1 -2 3 -5v0l1 -1v0v-1h1l0.5 -0.5l0.5 -0.5v0q4 -5 9 -7h1l0.5 -0.5l0.5 -0.5h1h1
q82 -22 122 -99q-44 -43 -119 -45q-136 -3 -259 -70v8q0 74 41 131t108 75z" />
    <glyph glyph-name="daifukuan" unicode="&#xe67d;" 
d="M887 -63h-750q-30 0 -51 17.5t-21 42.5v543q0 25 21 42.5t51 17.5h750q30 0 51 -17.5t21 -42.5v-543q0 -25 -21 -42.5t-51 -17.5zM116 -3q0 -1 2.5 -3t7.5 -4t11 -2h750q6 0 11 2t7.5 4t2.5 3v543q0 2 -2.5 3.5t-7.5 3.5t-11 2h-750q-6 0 -11 -2t-7.5 -3.5t-2.5 -3.5
v-543zM887 -63h-750q-30 0 -51 17.5t-21 42.5v730q0 22 15 37.5t37 15.5h628q21 0 36.5 -15.5t15.5 -37.5v-127h90q30 0 51 -17.5t21 -42.5v-543q0 -25 -21 -42.5t-51 -17.5zM116 -3q0 -1 2.5 -3t7.5 -4t11 -2h750q6 0 11 2t7.5 4t2.5 3v543q0 2 -2.5 3.5t-7.5 3.5t-11 2
h-141v178q0 2 -1 2h-628q-1 0 -1 -2v-730zM716 240h93v-94h-93v94zM199 389h546v-52h-546v52z" />
    <glyph glyph-name="shouhoufuwu" unicode="&#xe691;" 
d="M444 294q-46 0 -82 28q-46 34 -53 90q-5 34 7 67q2 6 8.5 9t13.5 0.5t9.5 -9t0.5 -12.5q-9 -24 -5 -50q5 -42 39 -68t76 -20t68 40t20 76t-39.5 68t-76.5 20q-6 -1 -12 3t-7 11t3.5 13t11.5 7q56 7 101 -27t53 -90.5t-26.5 -101.5t-90.5 -53q-9 -1 -19 -1zM671 189
q-7 0 -12 5l-140 140q-5 5 -5 12t5 12t12 5t12 -5l140 -140q5 -5 5 -12t-5 -12t-12 -5zM671 206zM643 206q0 12 8 20t20 8t20.5 -8t8.5 -20t-8.5 -20.5t-20.5 -8.5t-20 8.5t-8 20.5zM671 160q-19 0 -32 13.5t-13 32.5t13 32t32 13t32.5 -13t13.5 -32t-13.5 -32.5
t-32.5 -13.5zM671 217q-5 0 -8 -3t-3 -8t3 -8t8 -3t8 3t3 8t-3 8t-8 3zM512 -68q-92 0 -175.5 36t-144 96.5t-96.5 144t-36 175.5t36 175.5t96.5 144t144 96.5t175.5 36t175.5 -36t144 -96.5t96.5 -144t36 -175.5t-36 -175.5t-96.5 -144t-144 -96.5t-175.5 -36zM512 802
q-113 0 -209.5 -56t-152.5 -152.5t-56 -209.5t56 -209.5t152.5 -152.5t209.5 -56t209.5 56t152.5 152.5t56 209.5t-56 209.5t-152.5 152.5t-209.5 56z" />
    <glyph glyph-name="gouwudai" unicode="&#xe63f;" horiz-adv-x="1040" 
d="M927 -128h-830q-40 0 -68.5 28.5t-28.5 68.5v579q0 40 28.5 68.5t68.5 28.5h193v38q0 80 56.5 137t136.5 57h58q80 0 136.5 -57t56.5 -137v-38h193q40 0 68.5 -28.5t28.5 -68.5v-579q0 -40 -28.5 -68.5t-68.5 -28.5zM696 664q0 72 -51 123t-123 51h-20q-72 0 -123 -51
t-51 -123v-19h368v19zM908 606h-174v-119q22 -11 22 -35q0 -16 -11.5 -27.5t-27.5 -11.5t-27 11.5t-11 27.5q0 20 17 32v122h-368v-119q22 -11 22 -35q0 -16 -11 -27.5t-27 -11.5t-27.5 11.5t-11.5 27.5q0 20 17 32v122h-174q-39 -3 -58 -21t-19 -56v-541q1 -40 21 -56
t56 -21h792q30 0 54.5 24t22.5 53v541q5 39 -16.5 57t-60.5 20z" />
    <glyph glyph-name="fenlei" unicode="&#xe621;" horiz-adv-x="1121" 
d="M874 48q6 -10 17 -10q6 0 10 3q7 4 9.5 12t-2.5 15l-125 215q-4 7 -12 9t-15 -2t-9 -12t2 -15zM85 289h340q8 0 14 6t6 14t-6 14t-14 6h-340q-9 0 -14.5 -6t-5.5 -14t5.5 -14t14.5 -6zM909 6h-824q-9 0 -14.5 -6t-5.5 -14t5.5 -14t14.5 -6h824q9 0 14.5 6t5.5 14t-5.5 14
t-14.5 6zM85 594h251q8 0 13.5 5.5t5.5 14t-5.5 14t-13.5 5.5h-251q-9 0 -14.5 -5.5t-5.5 -14t5.5 -14t14.5 -5.5zM657 753q47 0 90 -18q41 -17 73 -49t50 -74q18 -43 18 -90t-18 -89t-50 -74t-73 -49q-43 -18 -90 -18t-90 18q-41 17 -73 49t-50 74t-18 89t18 90
q18 42 50 74t73 49q43 18 90 18zM657 793q-112 0 -191 -79.5t-79 -191t79 -191t191 -79.5t191 79.5t79 191t-79 191t-191 79.5v0z" />
    <glyph glyph-name="faxian" unicode="&#xe66c;" 
d="M514.5 854q-95.5 0 -183 -37.5t-150.5 -100.5t-100.5 -150t-37.5 -183t37.5 -183t100.5 -150.5t150.5 -100.5t183 -37t183 37t150.5 100.5t100 150.5t37 183t-37 183t-100 150t-150.5 100.5t-183 37.5zM514.5 -47q-116.5 0 -215.5 57.5t-157 156.5t-58 216t58 216
t157 156.5t215.5 57.5t215.5 -57.5t156.5 -156.5t57.5 -216t-57.5 -216t-156.5 -156.5t-215.5 -57.5zM755 651l-326 -174q-6 -3 -9 -8l-174 -326q-7 -14 4 -24q6 -6 15 -6q5 0 9 2l326 174q6 3 9 8l173 326q7 14 -3.5 24.5t-23.5 3.5zM575 322l-261 -139l139 261l262 139z
M514 383zM473 383q0 17 12 29t29 12t29 -12t12 -29t-12 -29t-29 -12t-29 12t-12 29z" />
    <glyph glyph-name="zhediechi" unicode="&#xe608;" 
d="M951 281h-6v7q0 6 -7 6t-7 -6v-7h-6q-7 0 -7 -6.5t7 -6.5h6v-7q0 -7 7 -7t7 7v7h6q7 0 7 6.5t-7 6.5zM431 797h-7v7q0 6 -6.5 6t-6.5 -6v-7h-7q-7 0 -7 -6.5t7 -6.5h7v-7q0 -7 6.5 -7t6.5 7v7h7q6 0 6 6.5t-6 6.5zM83 189q-8 0 -14 6t-6 14t6 14t14 6t13.5 -6t5.5 -14
t-5.5 -14t-13.5 -6zM82.5 215q-6.5 0 -6.5 -6t6.5 -6t6.5 6t-6.5 6zM913 -17zM909 -17q0 -4 4 -4t4 4t-4 4t-4 -4zM100 264zM96 264v0q0 -4 4 -4q1 0 2.5 1t1.5 3v0v0q0 4 -4 4t-4 -4v0zM157 742zM153 742v0q0 -4 4 -4t4 4v0v0q0 4 -4 4t-4 -4v0zM865 574zM861 574v0
q0 -2 1.5 -3t2.5 -1q4 0 4 4v0v0q0 2 -1 3t-3 1q-4 0 -4 -4v0zM838 568zM832 568q0 -6 6 -6t6 6t-6 6t-6 -6zM685.5 653q-9.5 0 -16 6.5t-6.5 16t6.5 16t16 6.5t16.5 -6.5t7 -16t-7 -16t-16.5 -6.5zM685.5 685q-9.5 0 -9.5 -9.5t9.5 -9.5t9.5 9.5t-9.5 9.5zM144 124
q0 63 44.5 107.5t107.5 44.5h461q63 0 107.5 -44.5t44.5 -107.5t-44.5 -107.5t-107.5 -44.5h-461q-63 0 -107.5 44.5t-44.5 107.5zM147 106.5q0 55.5 39.5 95t95.5 39.5h497q56 0 95 -39.5t39 -95t-39 -95t-95 -39.5h-497q-56 0 -95.5 39.5t-39.5 95zM147 130
q0 46 32.5 78.5t78.5 32.5h544q46 0 78.5 -32.5t32.5 -78.5t-32.5 -78.5t-78.5 -32.5h-544q-46 0 -78.5 32.5t-32.5 78.5zM400 276h-102q-63 0 -107.5 -44.5t-44.5 -107.5t44.5 -107.5t107.5 -44.5h102v304zM400 241h-116q-56 0 -95.5 -39.5t-39.5 -95t39.5 -95t95.5 -39.5
h116v269zM400 241h-140q-46 0 -78.5 -32.5t-32.5 -78.5t32.5 -78.5t78.5 -32.5h140v222zM286 124zM250 124v0q0 -15 10.5 -25.5t25.5 -10.5t26 10.5t11 25.5v0v0q0 15 -11 25.5t-26 10.5t-25.5 -10.5t-10.5 -25.5v0zM757 288h-461q-68 0 -116 -48t-48 -116t48 -116t116 -48
h461q68 0 116 48t48 116t-48 116t-116 48zM757 -17h-345v268q0 5 -3.5 8.5t-8 3.5t-8 -3.5t-3.5 -8.5v-268h-93q-59 0 -100 41.5t-41 99.5t41 99.5t100 41.5h461q58 0 99.5 -41.5t41.5 -99.5t-41.5 -99.5t-99.5 -41.5zM286.5 172q-19.5 0 -34 -14t-14.5 -34t14.5 -34t34 -14
t33.5 14t14 34t-14 34t-33.5 14zM286.5 99q-10.5 0 -18 7.5t-7.5 17.5t7.5 17.5t18 7.5t17.5 -7.5t7 -17.5t-7 -17.5t-17.5 -7.5zM861.5 154q-6.5 0 -6.5 7q0 16 -12 28t-29 12q-6 0 -6 6.5t6 6.5q22 0 38 -15.5t16 -37.5q0 -7 -6.5 -7zM790 201h-11q-7 0 -7 6.5t7 6.5h11
q6 0 6 -6.5t-6 -6.5zM511 201h-62q-7 0 -7 6.5t7 6.5h62q7 0 7 -6.5t-7 -6.5zM154.5 71q-23.5 58 1 116t83.5 82l428 173q58 24 116 -1t81.5 -83.5t-1 -116.5t-82.5 -81l-428 -173q-59 -24 -117 1t-81.5 83zM165 56q-21 52 1 103t73 72l461 186q52 21 103 -1t72 -73.5
t-1 -102.5t-73 -72l-461 -186q-52 -21 -103 0.5t-72 73.5zM156 78q-17 43 1 85t60 59l504 204q43 17 85.5 -1t59.5 -60.5t-1 -85t-60 -59.5l-504 -203q-43 -18 -85.5 0t-59.5 61zM336 308l-95 -38q-59 -24 -83.5 -82t-1 -116.5t81.5 -83t117 -0.5l95 38zM349 276l-108 -44
q-52 -21 -73.5 -72.5t-0.5 -103t72 -73t103 -1.5l108 44zM349 276l-130 -53q-42 -17 -60 -59.5t-1 -85t59.5 -60.5t84.5 -1l130 53zM250 124v0q0 -15 11 -25.5t26 -10.5t25.5 10.5t10.5 25.5v0v0q0 15 -10.5 26t-25.5 11t-26 -11t-11 -26v0zM875.5 362q-25.5 63 -88 89.5
t-124.5 0.5l-428 -172q-63 -26 -89.5 -88t-1 -125t87.5 -90q31 -13 64 -13q31 0 61 12l96 39h0.5h0.5h0.5h0.5l330 134q63 25 89.5 87.5t1 125.5zM777 171l-321 -130l-100 248q-4 11 -15 6q-11 -4 -6 -14l100 -249l-86 -35q-54 -21 -108 1q-54 23 -76 77t1 107.5t77 75.5
l428 173q26 11 53 11q42 0 78 -24t52 -64q22 -54 -1 -108t-76 -75zM269 168.5q-18 -7.5 -26 -25.5t-1 -37q8 -18 26 -26q10 -3 19 -3v0q9 0 18 3q18 7 26 25.5t0.5 37t-26 26t-36.5 0zM296.5 101q-9.5 -4 -19 0.5t-13.5 14t0 19t14 13.5q5 2 9 2q17 0 23 -16q4 -10 0 -19.5
t-13.5 -13.5zM806 367q-4 0 -6 4q-6 15 -21.5 22t-30.5 0q-6 -2 -9 4q-2 6 4 9q20 8 40.5 -0.5t29.5 -29.5q2 -6 -4 -9h-3zM713 380q-5 0 -6 4q-3 6 3 9l10 4q6 2 9 -4q2 -6 -4 -9l-10 -4h-2zM406 256q-4 0 -6 4q-2 6 4 9l58 23q6 3 8.5 -3t-3.5 -9l-58 -24h-3zM188.5 21.5
q-44.5 44.5 -44.5 107.5t44 107l326 327q45 44 108 44t107.5 -44.5t44.5 -107.5t-44 -108l-327 -326q-44 -44 -107 -44t-107.5 44.5zM203.5 11.5q-39.5 39.5 -39.5 95t39 95.5l352 351q39 39 94.5 39t95 -39.5t39.5 -95t-39 -94.5l-352 -352q-39 -39 -94.5 -39t-95 39.5z
M186.5 28q-32.5 33 -32.5 78.5t33 78.5l384 384q33 33 79 33t78.5 -32.5t32.5 -78.5t-33 -79l-384 -384q-33 -33 -79 -33t-78.5 33zM262 310l-73 -72q-44 -45 -44 -108t44.5 -107.5t107.5 -44.5t108 44l72 73zM287 285l-82 -82q-40 -40 -40 -95.5t39.5 -95t95.5 -39.5t95 40
l82 82zM287 285l-99 -99q-32 -32 -32 -78t32.5 -78.5t78.5 -32.5t78 32l99 99zM253 122v0q0 -15 10.5 -26t25.5 -11t25.5 11t10.5 26v0v0q0 15 -10.5 25.5t-25.5 10.5t-25.5 -10.5t-10.5 -25.5v0zM786 455q0 68 -48 116t-116 48t-116 -48l-326 -327q-48 -48 -48 -115
q0 -68 48 -116t116 -48t116 48l73 74l253 252q48 48 48 116zM477 111l-189 190q-8 8 -16 0t0 -16l189 -190l-66 -66q-41 -41 -99.5 -41t-99.5 41t-41 100q0 58 41 99l326 326q42 42 100 42t99 -42q42 -41 42 -99t-42 -100zM255 88q14 -14 34 -14t34 14t14 34t-14 34t-34 14
t-34 -14t-14 -34t14 -34zM271.5 139.5q7.5 7.5 17.5 7.5t18 -7q7 -8 7 -18t-7 -18q-7 -7 -18 -7q-10 0 -18 7q-7 7 -7 17.5t7.5 18zM674 559q-15 16 -37.5 16t-37.5 -16q-5 -5 0 -9q4 -5 9 0q12 11 28.5 11t28.5 -11q2 -2 4.5 -2t4.5 2q5 4 0 9zM581 542l-7 -8q-5 -5 0 -9
q2 -2 4.5 -2t4.5 2l8 7q5 5 0 9.5t-10 0.5zM384 345l-44 -44q-5 -5 0 -10q2 -2 5 -2t5 2l44 44q5 5 0 10q-5 4 -10 0zM237.5 -14.5q-58.5 24.5 -82.5 82.5t0 116l177 427q24 58 82.5 82t116.5 0t82 -82.5t0 -116.5l-177 -426q-24 -59 -82 -83t-116.5 0.5zM255.5 -17.5
q-51.5 21.5 -73 72.5t-0.5 103l191 459q21 51 72.5 72.5t103 0t73 -73t-0.5 -102.5l-190 -459q-21 -51 -72.5 -72.5t-103 0zM233.5 -8.5q-42.5 17.5 -60 60t-0.5 84.5l209 503q17 42 59.5 59.5t85 0t60 -60t0.5 -84.5l-208 -503q-18 -42 -60.5 -59.5t-85 0zM195 281l-39 -95
q-24 -58 0 -116.5t82 -82.5t116.5 0t82.5 83l39 94zM228 267l-45 -107q-21 -52 0.5 -103.5t72.5 -72.5t102.5 0t73.5 73l44 107zM228 267l-54 -129q-17 -42 0.5 -84.5t60 -60.5t85 0t59.5 60l54 129zM256 117v0q0 -15 10.5 -25.5t25.5 -10.5t26 10.5t11 25.5v0v0
q0 15 -11 26t-26 11t-25.5 -11t-10.5 -26v0zM535 703.5q-63 25.5 -125.5 -0.5t-88.5 -88l-176 -426q-26 -63 0 -125.5t88 -88.5q30 -13 62.5 -13t62.5 13q63 26 89 89l40 95v1v0v0.5v0.5l137 329q26 62 0 125t-89 88.5zM603 499l-133 -320l-247 103q-11 4 -15 -6
q-4 -11 6 -15l247 -103l-35 -86q-23 -54 -77 -76q-53 -22 -107 0t-76.5 76t-0.5 108l177 426q22 54 76 76.5t108 0t76.5 -76.5t0.5 -107zM274 73q9 -4 18 -4q32 0 44 30q8 18 0.5 36.5t-26 26t-36.5 0t-26 -26t0 -36.5t26 -26zM269 127q4 9 14 13q4 2 9 2t10 -2
q9 -4 13 -13.5t0 -19t-13.5 -13.5t-19 0t-13.5 13.5t0 19.5zM417 630q-1 0 -2 1q-6 2 -4 9q9 20 29.5 28.5t40.5 0.5q6 -3 4 -9t-9 -4q-15 7 -30.5 0.5t-21.5 -22.5q-2 -4 -7 -4zM404 598h-3q-6 3 -3 9l4 10q2 6 8 3q7 -2 4 -8l-4 -10q-1 -4 -6 -4zM277 293h-2q-6 3 -4 9
l24 58q3 6 9 3q6 -2 4 -8l-24 -58q-2 -4 -7 -4zM296 -28q-63 0 -107.5 44.5t-44.5 107.5v462q0 63 44.5 107.5t107.5 44.5t107.5 -44.5t44.5 -107.5v-462q0 -63 -44.5 -107.5t-107.5 -44.5zM313.5 -24q-55.5 0 -95 39.5t-39.5 94.5v497q0 56 39.5 95.5t95 39.5t95 -39.5
t39.5 -95.5v-497q0 -56 -39.5 -95t-95 -39zM290 -24q-46 0 -78.5 32.5t-32.5 78.5v544q0 46 32.5 78.5t78.5 32.5t78.5 -32.5t32.5 -78.5v-544q0 -46 -32.5 -78.5t-78.5 -32.5zM144 229v-103q0 -63 44.5 -107.5t107.5 -44.5t107.5 44.5t44.5 107.5v103h-304zM179 229v-117
q0 -56 39.5 -95t95 -39t95 39t39.5 95v117h-269zM179 229v-140q0 -46 32.5 -78.5t78.5 -32.5t78.5 32.5t32.5 78.5v140h-222zM448 217h-279q-5 0 -8.5 3.5t-3.5 8t3.5 8t8.5 3.5h279q5 0 8 -3.5t3 -8t-3 -8t-8 -3.5zM296 115zM259 115v0q0 -15 11 -26t26 -11t25.5 11
t10.5 26v0v0q0 15 -10.5 25.5t-25.5 10.5t-26 -10.5t-11 -25.5v0zM448 480q-5 0 -8 -3t-3 -8v-345q0 -58 -41.5 -99t-99.5 -41t-99.5 41t-41.5 99v294q0 5 -3.5 8.5t-8 3.5t-8 -3.5t-3.5 -8.5v-294q0 -67 48 -115t115.5 -48t115.5 48t48 115v345q0 5 -3 8t-8 3zM448 529
q-5 0 -8 -3t-3 -8v-24q0 -5 3 -8.5t8 -3.5t8 3.5t3 8.5v24q0 5 -3 8t-8 3zM143.5 434q4.5 0 8 3.5t3.5 7.5v140q0 59 41 100t99.5 41t99.5 -41t41 -100v-42q0 -5 3.5 -8t8 -3t8 3t3.5 8v42q0 68 -48 116t-115.5 48t-115.5 -48t-48 -116v-140q0 -4 3.5 -7.5t8 -3.5z
M248 114.5q0 -19.5 14 -33.5t33.5 -14t33.5 14t14 33.5t-14 34t-33.5 14.5t-33.5 -14.5t-14 -34zM321 114.5q0 -10.5 -7.5 -17.5t-18 -7t-17.5 7t-7 17.5t7 18t17.5 7.5t18 -7.5t7.5 -18zM212.5 636q-6.5 0 -6.5 7q0 22 15.5 37.5t37.5 15.5q7 0 7 -6.5t-7 -6.5
q-16 0 -28 -12t-12 -28q0 -7 -6.5 -7zM212.5 601q-6.5 0 -6.5 6v11q0 7 6.5 7t6.5 -7v-11q0 -6 -6.5 -6zM212.5 270q-6.5 0 -6.5 7v63q0 6 6.5 6t6.5 -6v-63q0 -7 -6.5 -7z" />
    <glyph glyph-name="12gouwudai" unicode="&#xe65d;" 
d="M714 420q-11 0 -18 7t-7 18v226q0 71 -51 122.5t-123 51.5t-123.5 -51t-51.5 -123v-226q0 -11 -7 -18t-18.5 -7t-18.5 7t-7 18v226q0 94 65.5 159.5t160 65.5t160 -65.5t65.5 -159.5v-226q0 -9 -8 -17t-18 -8zM922 -128h-817q-31 0 -56 26q-22 22 -18 58l61 561
q4 29 25 48t49 19h692q28 0 49 -19t25 -48l61 -561q4 -28 -18 -58q-21 -26 -53 -26zM166 530q-19 0 -23 -21l-61 -560q0 -8 5 -18q8 -8 18 -8h817q10 0 18 8t5 18l-62 560q-4 21 -23 21h-694zM259 402v0q0 -23 16.5 -39.5t39.5 -16.5t39.5 16.5t16.5 39.5v0v0
q0 23 -16.5 39.5t-39.5 16.5t-39.5 -16.5t-16.5 -39.5v0zM658 402v0q0 -23 16.5 -39.5t40 -16.5t40 16.5t16.5 39.5v0v0q0 23 -16.5 39.5t-40 16.5t-40 -16.5t-16.5 -39.5v0z" />
    <glyph glyph-name="pinglun" unicode="&#xe605;" 
d="M1024 244l-4 -8q-14 -45 -41 -65.5t-74 -20.5q-254 0 -393 1q-30 0 -50 -20q-45 -45 -131 -130t-97 -96q-1 -1 -14 -20l-7 5q-5 89 -5 94q-5 109 -5 140q0 16 -6.5 22t-21.5 5q-26 -2 -63 0q-79 4 -102 81l-5 12v537q16 39 17 42q19 36 80 55h826q19 -7 27.5 -10t22 -12
t20.5 -21q2 -3 26 -54v-537zM250 -16l10 -6q155 162 177 185q27 28 67 28q108 -1 406 0q33 0 52 19t19 51v505q0 30 -18.5 49.5t-46.5 19.5h-802q-28 0 -47 -19t-19 -48v-511q0 -28 19 -47t48 -19q6 -1 33.5 -0.5t33.5 0.5q33 -1 45.5 -12.5t14.5 -44.5q1 -22 8 -150z
M261 514h508q7 -26 2.5 -33t-29.5 -7h-455q-24 0 -29 7t3 33zM589 369v-40h-330v40h330zM258 621q-1 21 -1 22q-2 11 3 15.5t17 4.5q139 -1 257 0q12 0 16.5 -4.5t4.5 -17t-4 -17.5t-16 -4h-260z" />
    <glyph glyph-name="yaoyiyao1" unicode="&#xe600;" 
d="M738 667l-6 -2l-6 -2l-6 -2l-5 -2l-6 -2l-6 -2l-4 -2l-2 -2l-6 -2l-2 -2l-2 -2l-4 -4l-2 -3l-2 -4l-2 -2l-2 -4l-2 -6l-2 -4v-20l2 -7l2 -6l2 -2l2 -4h4v-4l4 -4l2 -2l2 -2l6 -2l2 -2l6 -2h25l6 2l4 2l12 4l4 2l6 2l6 2l7 2l4 2l6 2l6 2l4 2l6 2l6 2l4 2l12 5l4 2l7 2
l2 2l4 2l4 4l2 2l2 2l2 2l2 4l2 2l4 12v21l-2 8l-2 4l-2 4l-4 4l-2 4l-2 2l-2 2l-6 2l-2 2l-5 2l-4 3l-10 2h-2l-16 -2l-6 -3l-4 -2l-13 -4l-4 -2l-12 -4l-4 -2l-6 -2l-6 -2zM895 424l-6 -2l-6 -2l-4 -2l-13 -4l-4 -2l-12 -4l-4 -3l-12 -4l-4 -2l-19 -6l-4 -2l-12 -4l-4 -2
l-2 -2l-4 -4l-2 -2l-4 -4l-2 -2l-2 -4l-2 -2l-2 -7l-3 -8v-16l3 -6l2 -6l2 -4l2 -2l2 -2l8 -9l2 -2l6 -2l2 -2l6 -2l10 -2h11l6 2l4 2l6 2l6 2l4 2l6 2l6 2l4 2l12 5l5 2l12 4l4 2l18 6l4 2l6 2l6 2l5 4l4 2l2 2l2 4l4 4l2 4l2 4l2 5v26l-2 4l-2 6l-2 4l-8 9l-4 4l-4 2l-5 2
l-4 2l-8 2h-18zM848 557l-12 -4l-4 -2l-6 -2l-7 -2l-4 -3l-6 -2l-6 -2l-4 -2l-18 -6l-4 -2l-6 -2l-7 -2l-4 -2l-6 -2l-6 -2l-4 -2l-2 -2l-4 -2l-2 -2l-4 -4l-4 -4l-2 -4l-2 -3l-2 -4l-2 -8v-20l2 -6l2 -4l2 -2l2 -5l2 -2l2 -4l2 -2l2 -2l4 -2l2 -2l4 -2l4 -2l6 -2h21l6 2
l4 2l6 2l6 2l4 2l6 2l6 2l4 2l7 2l12 5l4 2l12 4l4 2l6 2l6 2l4 2l7 2l4 2l4 2v4h4l2 2l2 2l2 4l2 2l2 4l4 8v25l-2 6l-2 4l-2 4l-2 4l-2 2l-2 2l-4 5l-4 2l-2 2l-6 2l-3 2l-10 2h-10zM1005 258l-2 6l-2 5l-2 4l-2 4l-2 2l-4 4l-4 2l-2 2l-5 2l-4 2l-8 2h-22l-4 -2l-12 -4
l-5 -2l-6 -2l-6 -2l-4 -2l-6 -2l-12 -4l-4 -2l-6 -2l-6 -3l-5 -2l-6 -2l-6 -2l-4 -2l-12 -4l-2 -2l-2 -2l-4 -2l-2 -2l-2 -2l-2 -4l-4 -4l-2 -6l-2 -4l-2 -9v-16l2 -4l2 -6l2 -4l4 -4l2 -4l2 -2l4 -2l2 -2l2 -3l2 -2l6 -2l6 -2h21l6 2l12 4l4 3l12 4l4 2l12 4l5 2l12 4l4 2
l6 2l6 2l6 2l4 2l6 2l4 2l7 2l2 2l2 2l2 2l4 4l2 2l2 5l2 2l2 4l2 6l2 8v6zM181 673l2 -6l2 -6l3 -4l2 -6l2 -6l2 -4l2 -7l2 -6l2 -4l2 -6l2 -6l2 -6l2 -4l2 -6l2 -7l2 -4l2 -6l2 -6l2 -4l2 -6l2 -4h2l4 2l6 2l7 2l4 2l6 2l12 4l2 2l4 17l2 2l6 6l4 2l7 2l4 2l6 2l6 2l4 2
l6 2l6 2l4 2l6 2l6 2l4 2l7 2l12 4l4 2l6 2l6 2l4 3l6 2l6 2l5 2l6 2l6 2l4 2l6 2l12 4l4 2l12 4l5 2l12 4l4 2l6 2l6 2l4 2l6 2l6 2l4 2l7 2l6 3l6 2l4 2l6 2l6 2l4 2l12 4l4 2l13 4l4 2l12 4l4 2l18 6l4 2l7 2l6 2l4 2l6 2l6 2l4 3l6 2l6 2h17l2 -2l4 -2l4 -5l2 -4l2 -4
l2 -6l2 -6l2 -4l4 -12l2 -4l2 -6l2 -3h6l6 3l4 2l13 4l4 2l6 2l4 2v4l-2 6l-2 6l-2 4l-4 12l-2 5l-4 12l-2 4l-2 6l-2 6l-2 4l-4 12l-3 7l-2 4l-2 6l-2 6l-2 4l-4 12l-2 4l-2 7l-2 6l-2 4l-4 12l-2 4l-2 6l-2 6l-2 4l-2 3l-2 4l-2 2l-2 2l-4 2l-4 4l-2 2l-7 2l-6 2l-10 2h-2
l-12 -2l-6 -2l-4 -2l-13 -4l-4 -2l-12 -4l-6 -2l-4 -2l-12 -5l-4 -2l-6 -2l-7 -2l-4 -2l-6 -2l-6 -2l-4 -2l-6 -2l-6 -2l-4 -2l-19 -6l-4 -2l-12 -4l-4 -2l-12 -4l-4 -2l-6 -2l-7 -2l-4 -3l-12 -4l-4 -2l-6 -2l-6 -2l-6 -2l-4 -2l-7 -2l-6 -2l-4 -2l-6 -2l-6 -2l-4 -2
l-12 -4l-4 -2l-13 -4l-4 -2l-18 -6l-4 -3l-6 -2l-6 -2l-4 -2l-6 -2l-7 -2l-4 -2l-6 -2l-6 -2l-4 -2l-18 -6l-4 -2l-6 -2l-7 -2l-4 -2l-6 -2l-6 -2l-4 -2l-6 -2l-2 -2l-4 -3l-2 -2l-2 -2l-4 -2l-2 -2l-2 -4l-3 -2l-2 -4l-2 -2l-2 -4v-4l-2 -4v-12l2 -11zM375 720l2 6l2 4l6 2
l4 3l6 2l7 2l4 2l6 2l6 2l4 2l6 2l12 4l4 2l13 4l4 2l6 2l6 2l4 2l6 2l6 2l4 2h10l7 -2l2 -4l2 -2v-16l-2 -2l-2 -2l-5 -2l-4 -2l-6 -2l-6 -2l-4 -2l-6 -3l-6 -2l-4 -2l-6 -2l-6 -2l-7 -2l-4 -2l-6 -2l-6 -2l-4 -2l-12 -4l-4 -2l-12 -4l-5 -2h-10l-6 2l-2 2l-2 2l-2 4v8v0z
M970 99l-2 4l-4 12l-2 4l-2 6l-2 7l-2 4l-4 12l-2 4l-2 6l-2 2h-6l-6 -2l-4 -2l-19 -6l-4 -2l-12 -4l-4 -2l-6 -2l-10 -2q-56 0 -76 41l-2 6l-2 4l-2 4h-4l-4 -2l-18 -6l-5 -2l-12 -4l-4 -2l-12 -5l-4 -2l-12 -4l-4 -2l-7 -2l-6 -2l-4 -2l-6 -2l-6 -2l-6 -2l-4 -2l-6 -2
l-6 -2l-4 -2l-13 -4l-4 -2l-12 -4l-4 -2l-12 -4l-4 -2l-19 -7l-4 -2l-12 -4l-4 -2l-6 -2l-6 -2l-4 -2l-6 -2l-6 -2l-5 -2l-6 -2l-6 -2l-4 -2l-12 -4l-7 -2l-4 -2l-6 -2l-6 -3l-4 -2l-6 -2h-10l-6 2l-4 2l-2 3l-5 2l-2 6l-2 6l-2 4l-2 6l-2 6l-2 4l-2 6l-2 6l-2 7l-2 4l-2 6
l-2 6l-2 4l-4 12l-2 4l-2 7l-2 6l-2 4l-2 6l-2 6l-2 4l-2 6l-2 6l-3 4l-2 6l-2 7l-2 6l-2 4l-2 6l-2 6l-2 4l-2 6l-2 6l-2 5l-2 6l-2 6l-2 4l-4 12l-2 4l-2 6l-2 6l-2 5l-2 6l-2 6l-2 4l-2 6l-5 12l-2 4h-6l-6 -2l-4 -2l-12 -4l-4 -2l-6 -2l-2 -2v-4l2 -6l2 -4l2 -6l2 -6
l2 -5l2 -6l2 -6l2 -4l2 -6l2 -6l2 -4l4 -13l2 -6l2 -4l2 -6l2 -6l2 -4l2 -6l2 -6l3 -4l4 -13l2 -4l2 -6l2 -6l2 -6l2 -4l2 -6l2 -6l2 -7l2 -6l2 -4v-4l2 -2l2 -8l2 -6l2 -4l2 -6l4 -13l2 -4l2 -6l2 -4l2 -8l2 -4l3 -6l2 -6l2 -5l2 -6l2 -6l2 -4l4 -12l2 -4l2 -6l2 -6l2 -5
l2 -6l2 -6l2 -6l2 -4l4 -12l2 -4l2 -7l2 -6l2 -4l2 -6l2 -6l2 -4l2 -6l3 -6l2 -4l2 -7l2 -6l2 -4l4 -12l2 -6l2 -4l2 -6l2 -2l2 -4h4v-5l2 -2l2 -2l2 -2l8 -4l4 -2l6 -2h19l6 2l4 2l12 4l4 2l12 4l5 2l12 4l4 2l6 3l6 2l4 2l6 2l6 2l6 2l5 2l12 4l4 2l12 4l4 2l12 4l4 2l7 2
l6 2l4 2l18 6l4 2l6 2l6 3l4 2l7 2l6 2l4 2l12 4l4 2l12 4l4 2l6 2l7 2l6 2l4 2l6 2l6 2l4 2l6 2l6 2l4 2l12 4l5 2l12 5l4 2l18 6l4 2l6 2l6 2l5 2l6 2l6 2l4 2l6 2l6 2l4 2l6 2l6 2l9 4l4 2l2 2l2 2l4 5l2 4l2 2l2 2l2 6l2 8v20l-2 7zM702 -3q-23 0 -39.5 16.5t-16.5 39.5
q0 15 8 28v1l1 2l2 2l1 3l4 4h1q16 16 39 16t39.5 -16.5t16.5 -39.5t-16.5 -39.5t-39.5 -16.5v0zM424 -44l-2 6l-2 4l-2 6l-2 6l-2 4l-4 13l-2 4l-2 6l-2 6l-2 4l-3 6l-2 6l-2 4l-2 7l-4 12l-2 4l-2 6l-2 6l-2 4l-2 6l-2 6l-2 5l-2 6l-2 6l-2 4l-2 6l-2 6l-2 4l-4 13l-2 4
l-2 6l-2 6l-2 4l-2 6l-2 6l-3 6l-2 4l-4 13l-2 4l-2 6l-2 6l-2 4l-2 6l-2 6l-2 5l-2 6l-2 6l-2 4l-2 6l-2 6l-2 6l-2 4l-2 6l-2 7l-2 4l-2 6l-2 6l-2 4l-2 6l-3 6l-2 4l-2 6l-2 7l-2 6l-2 4l-2 6l-2 6l-2 4v6l2 6l2 2l2 5l2 2l4 2l4 2l5 2l6 2l6 2l4 2l6 2l6 2l4 2l6 2l6 2
l6 2l5 2l6 2l6 2l4 2l6 2l6 2l4 2l6 2l6 2l4 2l7 3l6 2l4 2l6 2l12 4l4 2l12 4l4 2l7 2l6 2l4 2l6 2l6 2l4 2l6 2l2 2l4 2l2 2l4 2l7 6l2 3l2 2l4 4l2 2l2 4l2 2l2 4l2 6l2 2l2 6q7 22 3.5 43t-14.5 35q-24 33 -83 33h-4q-5 -2 -14.5 -5.5t-13.5 -5.5l-5 -2l-6 -2l-6 -2
l-4 -2l-6 -2l-6 -2l-4 -2l-18 -6l-5 -2l-6 -2l-6 -2l-4 -2l-6 -2l-6 -2l-4 -2l-6 -2l-6 -2l-4 -3l-7 -2l-12 -4l-4 -2l-6 -2l-6 -2l-4 -2l-6 -2l-6 -2l-4 -2l-7 -2l-6 -2l-4 -2l-6 -2l-6 -2l-4 -2l-6 -2l-6 -2l-2 -2l-4 -2l-6 -2l-3 -2l-4 -2l-8 -5l-2 -2l-4 -2l-4 -2l-4 -2
l-2 -2l-4 -2l-2 -2l-2 -2l-4 -2l-4 -2l-4 -4l-5 -2l-2 -2l-2 -2l-2 -2l-4 -2l-4 -4l-2 -2l-4 -2l-2 -2l-2 -2l-2 -2l-2 -2l-2 -2l-2 -3l-2 -2l-2 -2l-2 -2l-2 -2l-2 -2l-4 -4l-2 -4l-2 -2l-2 -2l-3 -2l-2 -2l-2 -2l-2 -2l-2 -4l-2 -2l-2 -2l-2 -4l-2 -2l-2 -3l-2 -4l-4 -4
l-2 -4l-2 -4l-2 -2l-2 -4l-2 -4l-2 -2l-2 -4l-2 -4l-2 -4l-2 -2l-2 -7l-2 -4l-2 -4l-3 -2l-2 -6l-2 -6l-2 -4l-2 -6l-2 -6l-2 -6l-2 -7l-2 -4v-4l-2 -6l-2 -8l-2 -12l-2 -13l-2 -26v-25l2 -18v-6l2 -13l2 -10l2 -10l2 -4l2 -10l2 -6l2 -7l2 -4l2 -6l2 -6l2 -6l3 -4l2 -2
l2 -6l2 -4l2 -4l2 -3l2 -6l2 -2l2 -4l2 -2l2 -4l2 -2l2 -6l2 -2l2 -2l2 -2l2 -4l2 -4h4v-6l2 -3l2 -2l2 -2l2 -2l3 -2l2 -2l2 -4l2 -2l2 -2l2 -2l2 -2l2 -2l2 -2l2 -2l2 -2l2 -2l2 -2l4 -2l8 -8l2 -2l2 -3l2 -2l4 -2l2 -2l5 -2l2 -2l2 -2l4 -2l4 -2l2 -2l4 -2l4 -2l2 -2
l4 -2l2 -2l4 -2l6 -2l2 -2l7 -2l2 -2l6 -2l4 -2l4 -2l24 -9l6 -2l17 -4l6 -2h4l10 -2l16 -2h9l18 -2h2l31 2l18 2h4l8 2l10 2h4l4 2l11 2l6 2h4l4 2l6 2l6 3l4 2l2 2v6l-2 6z" />
    <glyph glyph-name="ziyuan" unicode="&#xe603;" horiz-adv-x="1182" 
d="M607 578q-2 5 -5.5 14t-17.5 33t-31 44.5t-46.5 43.5t-62.5 35q-40 15 -88.5 6.5t-89.5 -34.5t-73 -65.5t-38 -88t16 -102.5q34 -73 123.5 -167t312.5 -286q2 -2 93 91t188.5 200t110.5 135q8 19 12.5 47.5t4.5 64t-11.5 70.5t-31.5 64t-59.5 47t-91.5 18
q-134 0 -195 -117q-15 -29 -20 -53z" />
    <glyph glyph-name="shouye-shouye" unicode="&#xe6e6;" 
d="M1013 377l-501 468l-500 -467q-8 -7 -8 -17t7 -17t17 -7.5t17 6.5l467 435l467 -436q7 -7 16 -7q11 0 18 8q7 7 7 17t-7 17zM860 367q-10 0 -17 -7t-7 -17v-372h-194v259h-260v-258h-194v372q0 10 -7 17t-17 7t-17.5 -7t-7.5 -17v-421h292v259h161v-258h292v420
q0 9 -7 16t-17 7z" />
    <glyph glyph-name="lianxikefu" unicode="&#xe629;" 
d="M965 325v29q4 205 -122 326q-59 57 -142 87q-6 54 -61.5 91.5t-131 37.5t-131 -37.5t-61.5 -91.5q-83 -30 -142 -87q-126 -121 -122 -325v-36q-41 -39 -26 -94q7 -24 24.5 -41.5t40.5 -25.5q25 -14 54 -14q30 -123 129.5 -197.5t238.5 -74.5q138 0 238 75t129 197h4v0
q15 0 34 6.5t31 14.5q37 21 49 60q16 59 -33 100zM346 518q4 -6 10 -14.5t26 -30.5t42 -41.5t57 -41t73 -35.5q37 -13 111 -28q36 -7 55.5 -11.5t47.5 -14.5t49 -24.5t37 -35.5l2 -2v-3q0 -32 -5 -62q-46 -69 -119.5 -112t-166.5 -52q-16 19 -50 19q-23 0 -39.5 -10
t-16.5 -25t16.5 -25.5t39.5 -10.5q21 0 36.5 8.5t18.5 21.5q59 6 115 27q77 30 134 85q9 8 18 18q-34 -98 -120 -155.5t-203 -57.5h-2q-151 0 -247 92.5t-96 239.5v18q-1 10 2 52q31 10 58.5 29t44 37t30.5 38.5t18.5 29t6.5 13.5l17 64v0zM419 221.5q0 -25.5 -19 -43.5
t-46.5 -18t-46.5 18t-19 43.5t19 44t46.5 18.5t46.5 -18.5t19 -44zM723 222q0 -25 -19 -43t-45.5 -18t-45.5 18t-19 43t19 43t45.5 18t45.5 -18t19 -43z" />
    <glyph glyph-name="daijiesuan1" unicode="&#xe686;" 
d="M693 576h-60q0 -5 0.5 -21t-0.5 -22q-2 -8 -12 -8t-12 9v42h-194q0 -5 0.5 -21t-0.5 -21q-2 -8 -12 -8.5t-12 7.5q-1 3 -1 22v21h-31h-31q-6 0 -10.5 -4.5t-4.5 -9.5v-390q-1 -7 4.5 -12.5t12.5 -4.5h363h1q7 0 11.5 4.5t4.5 11.5v1v372q0 16 -1 19q0 6 -5 9.5t-11 3.5z
M589 310q6 1 9 -4t0 -10q-2 -5 -11 -5q-44 0 -65 1q-1 -7 -0.5 -26t-0.5 -26q-2 -7 -10 -6.5t-9 8.5v24.5v25.5h-68q-6 -1 -9 5t1 10q2 3 13 4h63v39h-35.5h-35.5q-7 1 -7 9t7 9q14 1 36 1h35q1 4 -9 15q-13 12 -37 36l-28 28q-3 3 -4 7.5t3 7.5q6 7 14 0q3 -2 71 -71
q5 5 31.5 32t40.5 41q7 5 13 -1.5t1 -12.5l-66 -66q-11 -11 -11 -16h34.5h34.5q4 0 7.5 -3.5t2.5 -7.5q-1 -3 -4 -6t-7 -2h-21h-25h-21v-39h33.5t33.5 -1zM512 896q-104 0 -199 -40.5t-163.5 -109t-109 -163.5t-40.5 -199t40.5 -199t109 -163.5t163.5 -109t199 -40.5
t199 40.5t163.5 109t109 163.5t40.5 199t-40.5 199t-109 163.5t-163.5 109t-199 40.5zM737 536v-354q-1 -26 -20 -42q-10 -9 -33 -12h-346q-27 2 -41 21q-11 13 -10 35v116.5v136.5v116q0 19 14 33.5t32 15.5h28.5h28.5v15t1 15q3 8 12 8t12 -8q1 0 0.5 -15l-0.5 -15h193v15
t1 15q3 8 12 8t12 -8q1 0 0.5 -14.5t-0.5 -15.5h27.5h27.5q14 0 26 -8t17 -20q6 -10 6 -38z" />
    <glyph glyph-name="daijiesuan" unicode="&#xe637;" 
d="M512 627q-100 0 -171.5 -71.5t-71.5 -171.5t71.5 -171.5t171.5 -71.5t171.5 71.5t71.5 171.5t-71.5 171.5t-171.5 71.5zM600 396v-28h-70v-40h70v-29h-70v-57h-36v57h-73v29h73v40h-73v28h62l-75 130h40q53 -96 65 -122v0q5 11 22 43l43 79h38l-76 -130h60zM862 850h-700
q-48 0 -82 -34t-34 -82v-700v0q0 -48 34 -82t82 -34v0h700q48 0 82 34t34 82v700q0 48 -34 82t-82 34zM512 112q-112 0 -192 80t-80 192t80 192t192 80t192 -80t80 -192t-80 -192t-192 -80z" />
    <glyph glyph-name="gouwuche" unicode="&#xe601;" 
d="M491 453h33v40h-37zM563 364h26l4 53h-30v-53zM497 368h27v49h-30zM451 493h-56l10 -40h49zM415 417l13 -49h33l-3 49h-43zM512 829q-91 0 -173 -35.5t-141.5 -95t-95 -141.5t-35.5 -173t35.5 -173t95 -141.5t141.5 -95t173 -35.5t173 35.5t141.5 95t95 141.5t35.5 173
t-35.5 173t-95 141.5t-141.5 95t-173 35.5zM467.5 174q-14.5 0 -23.5 9t-9 23q0 15 10 24t23 9t22.5 -9t9.5 -24q0 -14 -9 -23t-23.5 -9zM632 174q-15 0 -24 9t-9 23q0 15 10 24t23 9t23 -9t10 -24q0 -14 -9 -23t-24 -9zM741 506q0 -7 -7 -13l-46 -142v-13q0 -5 -4 -9t-9 -4
h-237l10 -40h227q5 0 9 -4t4 -9v-13q0 -5 -4 -9t-9 -4h-237q-3 0 -10 6q-10 0 -10 10l-79 293h-42q-5 0 -9.5 4t-4.5 9v13q0 5 4.5 9t9.5 4h62q5 0 9 -4t4 -9l13 -49h342q5 0 9.5 -4t4.5 -9v-13zM635 453h46l13 40h-55zM625 368h27l16 49h-39zM563 453h33l3 40h-36v-40z" />
    <glyph glyph-name="qiandao" unicode="&#xe631;" 
d="M715 661q13 3 16 12q3 5 2.5 57.5t-3.5 56.5q-4 9 -23 10q-2 0 -6.5 -2t-6.5 -2.5t-4.5 -3t-3.5 -5.5q-2 -6 -1 -58.5t3 -55.5q3 -5 11 -8t16 -1zM927 571q0 7 0.5 35.5t0 41.5t-4 31.5t-11.5 27.5q-10 14 -26 22t-35.5 10.5t-43 3t-49.5 -0.5q2 -18 0.5 -37t-5.5 -33.5
t-17.5 -22t-35.5 -3.5q-20 4 -29 18t-9 33.5v44.5h-296v-44.5t-9 -33.5t-29 -18q-15 -3 -32 5q-5 2 -8.5 5t-6 5.5t-4.5 7.5t-3.5 8t-2.5 9t-1 9.5t-0.5 11t0 11t0.5 12.5v12q-24 1 -47.5 0.5t-42.5 -3t-35 -9.5t-27 -19q-9 -12 -13.5 -34.5t-5 -40.5t0.5 -52t1 -44v-462
q0 -44 4 -53q5 -13 13 -22.5t21 -15.5t23 -9.5t30 -4.5t30.5 -1.5t37 0t37.5 0.5h549q57 9 75 49q3 7 4.5 17t1.5 17v21.5v19.5v475v0zM864 49q-4 -6 -17 -9.5t-33 -4.5t-37 -1t-39.5 0.5t-30.5 0.5h-389q-2 0 -44.5 -1.5t-67.5 0.5t-34 8q-5 3 -8 13.5t-3.5 26.5t0 29.5
t1 30t0.5 22.5v362h704v-344q0 -2 1 -38.5t0.5 -62.5t-3.5 -32zM699 442q-8 -4 -15 -9t-15 -13t-11.5 -12t-12.5 -15t-11 -13q-149 -159 -155 -166l-100 107q-9 11 -23 13.5t-26 -7.5q-7 -8 -8 -21t5 -23l105 -113q2 -2 8 -9.5t10 -12t10 -9t12 -6.5q7 -1 15.5 2.5t17 11.5
t14 14t13.5 16t9 10l185 199q14 17 5.5 37t-32.5 19zM324 661q12 3 16 12q2 5 1.5 57.5t-2.5 56.5q-5 9 -24 10q-2 -1 -6.5 -2.5t-6.5 -2t-4.5 -3t-3.5 -5.5q-1 -6 0 -58.5t2 -55.5q3 -5 11 -8t17 -1z" />
    <glyph glyph-name="icon-test" unicode="&#xe6cb;" horiz-adv-x="1606" 
d="M1576 279q-4 -4 -12 -14q-25 -29 -40 -46.5t-48.5 -52.5t-60.5 -58.5t-70.5 -57t-84 -56t-95 -47.5t-109.5 -40t-123 -25t-139 -10q-61 0 -120.5 10t-109 24t-101.5 40t-91 48t-85 58t-75 60.5t-69 64.5t-60 61t-55 59q-3 4 -4 5q-26 27 -24 82.5t33 87.5q8 8 25 26
q42 44 66.5 69.5t76 73t92 77t102.5 67t120 59t131 37t148 15.5q77 0 155 -18t140 -43t128.5 -67t110.5 -75t97.5 -82.5t77 -74t60.5 -63.5q12 -13 17 -19q25 -26 26 -79.5t-30 -95.5zM804.5 747q-99.5 0 -184 -49t-133.5 -133t-49 -183.5t49 -184t133.5 -133.5t184 -49
t183.5 49t133 133.5t49 184t-49 183.5t-133 133t-183.5 49zM804.5 162q-90.5 0 -154.5 64.5t-64 155t64 154.5t154.5 64t154.5 -64t64 -154.5t-64 -155t-154.5 -64.5z" />
  </font>
</defs>
</svg>
